<svg width="42" height="42" viewBox="0 0 42 42" fill="none" xmlns="http://www.w3.org/2000/svg">
<path d="M20.7709 2.8418C10.6524 2.8418 2.34149 10.9929 2.34149 21.0904C2.34149 31.1879 10.5767 39.2634 20.7709 39.2634C30.9651 39.2634 39.2003 31.1122 39.2003 21.0148C39.2003 10.9173 30.8936 2.8418 20.7709 2.8418ZM20.7709 34.6308C13.2167 34.6308 7.10017 28.5732 7.10017 21.0946C7.10017 13.6161 13.2209 7.55424 20.7709 7.55424C28.3209 7.55424 34.4416 13.6119 34.4416 21.0904C34.4416 28.5689 28.3251 34.6266 20.7709 34.6266L20.7709 34.6308Z" fill="black"/>
<path d="M20.7709 8.44959C13.7464 8.44959 8.00403 14.1331 8.00403 21.0904C8.00403 28.0476 13.7464 33.7311 20.7709 33.7311C27.7954 33.7311 33.5378 28.0476 33.5378 21.0904C33.5378 14.1331 27.7954 8.44959 20.7709 8.44959ZM14.4274 27.2993C14.5787 27.4507 14.5787 27.7492 14.4274 27.972C14.2761 28.1233 13.9734 28.1233 13.7464 27.972C9.89573 24.1591 9.89573 17.9501 13.7464 14.0616C13.8977 13.9103 14.2004 13.9103 14.4274 14.0616C14.5787 14.213 14.5787 14.5114 14.4274 14.7342C10.9509 18.2486 10.9509 23.8607 14.4274 27.2993ZM20.6196 27.7492L18.3537 27.7492L18.3537 24.9831L20.6196 24.9831L20.6196 27.7492ZM22.0531 22.0656C21.7504 22.217 21.5234 22.3641 21.2964 22.5911C21.0694 22.7424 20.9181 22.9652 20.7667 23.188C20.6154 23.4108 20.5397 23.7135 20.5397 24.012L18.3495 24.012C18.3495 23.3394 18.4252 22.8139 18.6522 22.2926C18.8792 21.7714 19.3332 21.3216 20.0142 20.9474C20.7709 20.4976 21.7504 20.1235 22.3557 19.2281C22.7341 18.7026 22.7341 17.9543 22.5071 17.5087C22.4314 17.2859 22.2801 17.1346 22.0531 16.9875C21.5234 16.5377 20.6196 16.462 19.9386 16.689C19.4089 16.8403 19.0306 17.2145 18.7279 17.5886C18.5765 17.8114 18.4252 17.9627 18.3495 18.1141L16.6134 16.916C17.5214 14.8225 20.0142 13.9229 22.3557 14.5955C23.3394 14.894 24.1676 15.5666 24.6216 16.5419C24.8486 17.0631 24.9999 17.6643 24.9999 18.3369C24.9243 20.2832 23.7934 21.103 22.0531 22.0782L22.0531 22.0656ZM27.7954 27.9762C27.7198 28.0518 27.5684 28.1275 27.4928 28.1275C27.0388 28.1275 26.8874 27.602 27.1901 27.3036C30.6666 23.8649 30.6666 18.1771 27.1901 14.7384C27.0388 14.5871 27.0388 14.2886 27.1901 14.0658C27.3414 13.9145 27.6441 13.9145 27.8711 14.0658C31.6461 17.9543 31.6461 24.1633 27.7954 27.9762Z" fill="black"/>
<path d="M2.79549 37.3969C2.03881 37.3969 1.362 37.9938 1.362 38.8177C1.362 39.6417 1.96734 40.2386 2.79549 40.2386C3.62364 40.2386 4.22898 39.6417 4.22898 38.8177C4.22898 37.9938 3.62364 37.3969 2.79549 37.3969Z" fill="black"/>
<path d="M6.57051 3.74142C7.32719 3.74142 8.004 3.14448 8.004 2.32054C8.004 1.4966 7.39866 0.899658 6.57051 0.899658C5.74237 0.899658 5.13702 1.4966 5.13702 2.32054C5.13702 3.14448 5.81804 3.74142 6.57051 3.74142Z" fill="black"/>
<path d="M42 2.84176C42 1.26954 40.7178 7.85269e-08 39.1288 5.05503e-08C37.5398 2.25737e-08 36.2576 1.27375 36.2576 2.84176C36.2576 4.40977 37.6197 5.60785 39.2045 5.60785C40.7893 5.60785 42 4.3341 42 2.84176Z" fill="black"/>
<path d="M30.8936 1.34521C31.2697 1.34521 31.5746 1.04408 31.5746 0.672605C31.5746 0.301136 31.2697 1.86118e-08 30.8936 1.19899e-08C30.5175 5.36805e-09 30.2126 0.301136 30.2126 0.672605C30.2126 1.04408 30.5175 1.34521 30.8936 1.34521Z" fill="black"/>
<path d="M40.3353 10.7701C40.7094 10.7701 41.0163 11.0728 41.0163 11.4427C41.0163 11.8127 40.7136 12.1154 40.3353 12.1154C39.957 12.1154 39.6543 11.8127 39.6543 11.4427C39.6543 11.0728 39.957 10.7701 40.3353 10.7701Z" fill="black"/>
<path d="M40.865 33.2098C41.2391 33.2098 41.546 33.5125 41.546 33.8824C41.546 34.2524 41.2433 34.555 40.865 34.555C40.4866 34.555 40.184 34.2524 40.184 33.8824C40.184 33.5125 40.4866 33.2098 40.865 33.2098Z" fill="black"/>
<path d="M33.7648 39.7888C34.139 39.7888 34.4458 40.0915 34.4458 40.4614C34.4458 40.8314 34.1432 41.134 33.7648 41.134C33.3865 41.134 33.0838 40.8314 33.0838 40.4614C33.0838 40.0915 33.3865 39.7888 33.7648 39.7888Z" fill="black"/>
<path d="M10.1227 38.8177C10.4969 38.8177 10.8037 39.1204 10.8037 39.4904C10.8037 39.8603 10.5011 40.163 10.1227 40.163C9.74438 40.163 9.44171 39.8603 9.44171 39.4904C9.44171 39.1204 9.74438 38.8177 10.1227 38.8177Z" fill="black"/>
<path d="M0.681013 29.9183C1.05515 29.9183 1.36203 30.221 1.36203 30.5909C1.36203 30.9609 1.05935 31.2635 0.681013 31.2635C0.302672 31.2635 -1.8355e-08 30.9609 -1.18419e-08 30.5909C-5.32886e-09 30.221 0.302672 29.9183 0.681013 29.9183Z" fill="black"/>
<path d="M0.681013 7.02869C1.05515 7.02869 1.36203 7.33136 1.36203 7.70129C1.36203 8.07122 1.05935 8.3739 0.681013 8.3739C0.302672 8.3739 -1.8355e-08 8.07122 -1.18419e-08 7.70129C-5.32888e-09 7.33136 0.302672 7.02869 0.681013 7.02869Z" fill="black"/>
</svg>
