<svg width="32" height="28" viewBox="0 0 32 28" fill="none" xmlns="http://www.w3.org/2000/svg">
<path d="M28.25 0H3.75C2.82174 0 1.9315 0.368749 1.27513 1.02513C0.618749 1.6815 0.25 2.57174 0.25 3.5V24.5C0.25 25.4283 0.618749 26.3185 1.27513 26.9749C1.9315 27.6313 2.82174 28 3.75 28H28.25C30.175 28 31.75 26.425 31.75 24.5V3.5C31.75 1.575 30.175 0 28.25 0ZM14.25 19.25H11.625V15.75H8.125V19.25H5.5V8.75H8.125V13.125H11.625V8.75H14.25V19.25ZM26.5 17.5C26.5 18.4625 25.7125 19.25 24.75 19.25H23.4375V21.875H20.8125V19.25H19.5C18.5375 19.25 17.75 18.4625 17.75 17.5V10.5C17.75 9.5375 18.5375 8.75 19.5 8.75H24.75C25.7125 8.75 26.5 9.5375 26.5 10.5V17.5ZM20.375 16.625H23.875V11.375H20.375V16.625Z" fill="#3C3C3C"/>
</svg>
